<svg width="24" height="24" viewBox="0 0 24 24" fill="none" xmlns="http://www.w3.org/2000/svg">
<path d="M17.9 4.17V1.68C17.9014 1.56235 17.879 1.44562 17.834 1.33689C17.789 1.22817 17.7224 1.12969 17.6383 1.04743C17.5542 0.965166 17.4542 0.900825 17.3445 0.858297C17.2348 0.815769 17.1176 0.795938 17 0.800004H12.57C12.1512 0.799985 11.7365 0.882963 11.3499 1.04414C10.9634 1.20532 10.6126 1.44151 10.3178 1.73906C10.023 2.0366 9.79017 2.38961 9.63264 2.77768C9.47511 3.16575 9.39604 3.5812 9.4 4V9H7C6.8849 9 6.77095 9.02283 6.66474 9.06717C6.55853 9.11152 6.46217 9.1765 6.38126 9.25835C6.30034 9.3402 6.23646 9.43729 6.19333 9.544C6.1502 9.65071 6.12868 9.76492 6.13 9.88V12.38C6.13 12.6107 6.22166 12.832 6.38482 12.9952C6.54798 13.1583 6.76926 13.25 7 13.25H9.4V22.5C9.40263 22.7317 9.49651 22.9529 9.66126 23.1158C9.826 23.2787 10.0483 23.37 10.28 23.37H13.28C13.5117 23.37 13.734 23.2787 13.8987 23.1158C14.0635 22.9529 14.1574 22.7317 14.16 22.5V13.28H17C17.2307 13.28 17.452 13.1883 17.6152 13.0252C17.7783 12.862 17.87 12.6407 17.87 12.41V9.91C17.8754 9.79243 17.8569 9.67499 17.8156 9.56477C17.7743 9.45456 17.7111 9.35387 17.6298 9.2688C17.5484 9.18373 17.4507 9.11604 17.3424 9.06984C17.2342 9.02364 17.1177 8.99988 17 9H14.1V5.93C14.0986 5.81235 14.121 5.69562 14.166 5.58689C14.211 5.47817 14.2776 5.37969 14.3617 5.29743C14.4458 5.21517 14.5458 5.15082 14.6555 5.1083C14.7652 5.06577 14.8824 5.04594 15 5.05H17C17.1176 5.05407 17.2348 5.03424 17.3445 4.99171C17.4542 4.94918 17.5542 4.88484 17.6383 4.80258C17.7224 4.72032 17.789 4.62184 17.834 4.51311C17.879 4.40439 17.9014 4.28766 17.9 4.17Z" fill="white"/>
</svg>
