<svg width="24" height="24" viewBox="0 0 24 24" fill="none" xmlns="http://www.w3.org/2000/svg">
<path d="M19.33 1.52H4.67002C3.83459 1.52 3.03337 1.85188 2.44263 2.44262C1.85189 3.03336 1.52002 3.83457 1.52002 4.67V19.33C1.52002 20.1654 1.85189 20.9667 2.44263 21.5574C3.03337 22.1481 3.83459 22.48 4.67002 22.48H19.33C20.1655 22.48 20.9667 22.1481 21.5574 21.5574C22.1481 20.9667 22.48 20.1654 22.48 19.33V4.67C22.48 3.83457 22.1481 3.03336 21.5574 2.44262C20.9667 1.85188 20.1655 1.52 19.33 1.52ZM12 17.29C10.9538 17.29 9.93099 16.9798 9.06105 16.3985C8.19112 15.8172 7.51308 14.991 7.1127 14.0244C6.71231 13.0578 6.60755 11.9941 6.81167 10.968C7.01578 9.94182 7.5196 8.99923 8.25942 8.25941C8.99924 7.51959 9.94183 7.01577 10.968 6.81165C11.9942 6.60753 13.0578 6.71229 14.0244 7.11268C14.991 7.51307 15.8172 8.1911 16.3985 9.06104C16.9798 9.93097 17.29 10.9537 17.29 12C17.29 13.403 16.7327 14.7485 15.7406 15.7406C14.7485 16.7327 13.403 17.29 12 17.29ZM18.82 6.78C18.515 6.78 18.2169 6.68942 17.9634 6.51976C17.7099 6.35009 17.5126 6.10899 17.3963 5.827C17.2801 5.54502 17.2501 5.23487 17.3104 4.93587C17.3706 4.63687 17.5183 4.36249 17.7347 4.14752C17.951 3.93255 18.2264 3.78667 18.5258 3.72839C18.8251 3.6701 19.1351 3.70203 19.4163 3.82012C19.6975 3.93821 19.9373 4.13716 20.1054 4.39172C20.2734 4.64628 20.362 4.945 20.36 5.25C20.3574 5.6567 20.194 6.04584 19.9054 6.33249C19.6169 6.61914 19.2267 6.78001 18.82 6.78Z" fill="white"/>
<path d="M15 12C15 13.6569 13.6569 15 12 15C10.3431 15 9 13.6569 9 12C9 10.3431 10.3431 9 12 9C13.6569 9 15 10.3431 15 12Z" fill="white"/>
</svg>
