<svg width="22" height="21" viewBox="0 0 22 21" fill="none" xmlns="http://www.w3.org/2000/svg">
<path d="M21.48 3V2.7C21.4813 2.3459 21.4127 1.99503 21.2781 1.66751C21.1435 1.33999 20.9456 1.04226 20.6956 0.791415C20.4457 0.540565 20.1487 0.341526 19.8217 0.205716C19.4947 0.0699063 19.1441 -2.4467e-06 18.79 0H3.20998C2.85588 -2.4467e-06 2.50526 0.0699063 2.17824 0.205716C1.85122 0.341526 1.55424 0.540565 1.30432 0.791415C1.05439 1.04226 0.85646 1.33999 0.721864 1.66751C0.587268 1.99503 0.518661 2.3459 0.519977 2.7V3H21.48Z" fill="white"/>
<path d="M21.48 5H0.479999V18.17C0.478677 18.5236 0.547354 18.874 0.682071 19.201C0.816788 19.5279 1.01488 19.825 1.26493 20.0751C1.51499 20.3251 1.81206 20.5232 2.13902 20.6579C2.46598 20.7926 2.81637 20.8613 3.17 20.86H18.79C19.1436 20.8613 19.494 20.7926 19.821 20.6579C20.1479 20.5232 20.445 20.3251 20.6951 20.0751C20.9451 19.825 21.1432 19.5279 21.2779 19.201C21.4126 18.874 21.4813 18.5236 21.48 18.17V5ZM9.85 12.75L8.52 17.75C8.47128 17.9362 8.37413 18.1061 8.23844 18.2426C8.10274 18.3791 7.93333 18.4772 7.74744 18.5269C7.56154 18.5767 7.36577 18.5764 7.18004 18.526C6.99431 18.4756 6.82523 18.3769 6.69 18.24L5.57 17.1L3.87 18.81C3.77656 18.9027 3.66574 18.976 3.54391 19.0258C3.42207 19.0755 3.29161 19.1008 3.16 19.1C3.02839 19.1008 2.89793 19.0755 2.77609 19.0258C2.65426 18.976 2.54344 18.9027 2.45 18.81C2.35627 18.717 2.28188 18.6064 2.23111 18.4846C2.18034 18.3627 2.1542 18.232 2.1542 18.1C2.1542 17.968 2.18034 17.8373 2.23111 17.7154C2.28188 17.5936 2.35627 17.483 2.45 17.39L4.16 15.69L3.05 14.58C2.91353 14.4437 2.81531 14.2738 2.76519 14.0876C2.71508 13.9013 2.71483 13.7051 2.76447 13.5187C2.81411 13.3323 2.91189 13.1622 3.04801 13.0256C3.18413 12.8889 3.3538 12.7904 3.54 12.74L8.54 11.41C8.72367 11.3655 8.91576 11.3695 9.09742 11.4216C9.27908 11.4737 9.44406 11.5722 9.57618 11.7073C9.70829 11.8425 9.803 12.0097 9.851 12.1925C9.89901 12.3752 9.89866 12.5674 9.85 12.75Z" fill="white"/>
</svg>
